<svg width="224" height="164" viewBox="0 0 224 164" fill="none" xmlns="http://www.w3.org/2000/svg">
<rect x="44" y="84" width="8" height="8" fill="white"/>
<rect x="52" y="76" width="8" height="8" fill="white"/>
<rect x="60" y="68" width="8" height="8" fill="white"/>
<rect x="60" y="60" width="8" height="8" fill="white"/>
<rect x="60" y="52" width="8" height="8" fill="white"/>
<rect x="68" y="44" width="8" height="8" fill="white"/>
<rect x="76" y="44" width="8" height="8" fill="white"/>
<rect x="84" y="44" width="8" height="8" fill="white"/>
<rect x="92" y="44" width="8" height="8" fill="white"/>
<rect x="92" y="52" width="8" height="8" fill="white"/>
<rect x="100" y="60" width="8" height="8" fill="white"/>
<rect x="108" y="60" width="8" height="8" fill="white"/>
<rect x="116" y="60" width="8" height="8" fill="white"/>
<rect x="124" y="44" width="8" height="8" fill="white"/>
<rect x="124" y="52" width="8" height="8" fill="white"/>
<rect x="132" y="44" width="8" height="8" fill="white"/>
<rect x="140" y="44" width="8" height="8" fill="white"/>
<rect x="148" y="44" width="8" height="8" fill="white"/>
<rect x="156" y="52" width="8" height="8" fill="white"/>
<rect x="156" y="60" width="8" height="8" fill="white"/>
<rect x="156" y="68" width="8" height="8" fill="white"/>
<rect x="164" y="76" width="8" height="8" fill="white"/>
<rect x="172" y="84" width="8" height="8" fill="white"/>
<rect x="172" y="92" width="8" height="8" fill="white"/>
<rect x="172" y="100" width="8" height="8" fill="white"/>
<rect x="172" y="108" width="8" height="8" fill="white"/>
<rect x="172" y="116" width="8" height="8" fill="white"/>
<rect x="140" y="60" width="8" height="8" fill="white"/>
<rect x="140" y="68" width="8" height="8" fill="white"/>
<rect x="125" y="84" width="8" height="8" fill="white"/>
<rect x="117" y="92" width="8" height="8" fill="white"/>
<rect x="109" y="92" width="8" height="8" fill="white"/>
<rect x="101" y="92" width="8" height="8" fill="white"/>
<rect x="93" y="84" width="8" height="8" fill="white"/>
<rect x="76" y="68" width="8" height="8" fill="white"/>
<rect x="76" y="60" width="8" height="8" fill="white"/>
<rect x="44" y="92" width="8" height="8" fill="white"/>
<rect x="44" y="100" width="8" height="8" fill="white"/>
<rect x="44" y="108" width="8" height="8" fill="white"/>
<rect x="44" y="116" width="8" height="8" fill="white"/>
<rect x="44" y="124" width="8" height="8" fill="white"/>
<rect x="52" y="132" width="8" height="8" fill="white"/>
<rect x="60" y="140" width="8" height="8" fill="white"/>
<rect x="68" y="148" width="8" height="8" fill="white"/>
<rect x="76" y="156" width="8" height="8" fill="white"/>
<rect x="84" y="156" width="8" height="8" fill="white"/>
<rect x="92" y="148" width="8" height="8" fill="white"/>
<rect x="100" y="148" width="8" height="8" fill="white"/>
<rect x="108" y="148" width="8" height="8" fill="white"/>
<rect x="116" y="148" width="8" height="8" fill="white"/>
<rect x="124" y="148" width="8" height="8" fill="white"/>
<rect x="132" y="156" width="8" height="8" fill="white"/>
<rect x="140" y="156" width="8" height="8" fill="white"/>
<rect x="148" y="148" width="8" height="8" fill="white"/>
<rect x="156" y="140" width="8" height="8" fill="white"/>
<rect x="164" y="132" width="8" height="8" fill="white"/>
<rect x="172" y="124" width="8" height="8" fill="white"/>
<rect x="148" y="140" width="8" height="8" fill="white"/>
<rect x="68" y="140" width="8" height="8" fill="white"/>
<path d="M20 40H24V44H20V40Z" fill="white"/>
<path d="M20 36H24V40H20V36Z" fill="white"/>
<path d="M16 32H20V36H16V32Z" fill="white"/>
<path d="M24 32H28V36H24V32Z" fill="white"/>
<path d="M24 28H28V32H24V28Z" fill="white"/>
<path d="M16 28H20V32H16V28Z" fill="white"/>
<path d="M12 24H16V28H12V24Z" fill="white"/>
<path d="M8 24H12V28H8V24Z" fill="white"/>
<path d="M4 20H8V24H4V20Z" fill="white"/>
<path d="M8 16H12V20H8V16Z" fill="white"/>
<path d="M12 16H16V20H12V16Z" fill="white"/>
<path d="M16 12H20V16H16V12Z" fill="white"/>
<path d="M16 8H20V12H16V8Z" fill="white"/>
<path d="M20 4H24V8H20V4Z" fill="white"/>
<path d="M20 0H24V4H20V0Z" fill="white"/>
<path d="M3 5H7V9H3V5Z" fill="white"/>
<path d="M37 0H41V4H37V0Z" fill="white"/>
<path d="M24 8H28V12H24V8Z" fill="white"/>
<path d="M24 12H28V16H24V12Z" fill="white"/>
<path d="M28 16H32V20H28V16Z" fill="white"/>
<path d="M32 16H36V20H32V16Z" fill="white"/>
<path d="M0 20H4V24H0V20Z" fill="white"/>
<path d="M28 24H32V28H28V24Z" fill="white"/>
<path d="M32 24H36V28H32V24Z" fill="white"/>
<path d="M36 20H40V24H36V20Z" fill="white"/>
<path d="M40 20H44V24H40V20Z" fill="white"/>
<path d="M20 36H24V32V28H28V24H32H36V20H32H28V16H24V12V8H20V12V16H16V20H12H8V24H12H16V28H20V32V36Z" fill="white"/>
<path d="M204 56H200V60H204V56Z" fill="white"/>
<path d="M204 52H200V56H204V52Z" fill="white"/>
<path d="M208 48H204V52H208V48Z" fill="white"/>
<path d="M200 48H196V52H200V48Z" fill="white"/>
<path d="M200 44H196V48H200V44Z" fill="white"/>
<path d="M208 44H204V48H208V44Z" fill="white"/>
<path d="M212 40H208V44H212V40Z" fill="white"/>
<path d="M216 40H212V44H216V40Z" fill="white"/>
<path d="M220 36H216V40H220V36Z" fill="white"/>
<path d="M216 32H212V36H216V32Z" fill="white"/>
<path d="M212 32H208V36H212V32Z" fill="white"/>
<path d="M208 28H204V32H208V28Z" fill="white"/>
<path d="M208 24H204V28H208V24Z" fill="white"/>
<path d="M204 20H200V24H204V20Z" fill="white"/>
<path d="M204 16H200V20H204V16Z" fill="white"/>
<path d="M221 21H217V25H221V21Z" fill="white"/>
<path d="M187 16H183V20H187V16Z" fill="white"/>
<path d="M200 24H196V28H200V24Z" fill="white"/>
<path d="M200 28H196V32H200V28Z" fill="white"/>
<path d="M196 32H192V36H196V32Z" fill="white"/>
<path d="M192 32H188V36H192V32Z" fill="white"/>
<path d="M224 36H220V40H224V36Z" fill="white"/>
<path d="M196 40H192V44H196V40Z" fill="white"/>
<path d="M192 40H188V44H192V40Z" fill="white"/>
<path d="M188 36H184V40H188V36Z" fill="white"/>
<path d="M184 36H180V40H184V36Z" fill="white"/>
<path d="M204 52H200V48V44H196V40H192H188V36H192H196V32H200V28V24H204V28V32H208V36H212H216V40H212H208V44H204V48V52Z" fill="white"/>
</svg>
