<svg width="220" height="30" viewBox="0 0 220 30" fill="none" xmlns="http://www.w3.org/2000/svg">
<rect x="10" y="10" width="10" height="10" fill="#DD80AD"/>
<rect x="20" y="10" width="10" height="10" fill="#DD80AD"/>
<rect x="30" y="10" width="10" height="10" fill="#DD80AD"/>
<rect x="40" y="10" width="10" height="10" fill="#DD80AD"/>
<rect x="50" y="10" width="10" height="10" fill="#DD80AD"/>
<rect x="60" y="10" width="10" height="10" fill="#DD80AD"/>
<rect x="70" y="10" width="10" height="10" fill="#DD80AD"/>
<rect x="80" y="10" width="10" height="10" fill="#DD80AD"/>
<rect x="90" y="10" width="10" height="10" fill="#DD80AD"/>
<rect x="100" y="10" width="10" height="10" fill="#DD80AD"/>
<rect x="10" y="10" width="10" height="10" fill="#DD80AD"/>
<rect x="10" y="20" width="200" height="10" fill="black"/>
<rect x="10" width="200" height="10" fill="black"/>
<rect y="10" width="10" height="10" fill="black"/>
<rect x="210" y="10" width="10" height="10" fill="black"/>
<rect x="10" y="10" width="10" height="10" fill="#DD80AD"/>
<rect x="20" y="10" width="10" height="10" fill="#DD80AD"/>
<rect x="30" y="10" width="10" height="10" fill="#DD80AD"/>
<rect x="40" y="10" width="10" height="10" fill="#DD80AD"/>
<rect x="50" y="10" width="10" height="10" fill="#DD80AD"/>
<rect x="60" y="10" width="10" height="10" fill="#DD80AD"/>
<rect x="70" y="10" width="10" height="10" fill="#DD80AD"/>
<rect x="80" y="10" width="10" height="10" fill="#DD80AD"/>
<rect x="90" y="10" width="10" height="10" fill="#DD80AD"/>
<rect x="100" y="10" width="10" height="10" fill="#DD80AD"/>
<rect x="10" y="10" width="10" height="10" fill="#DD80AD"/>
<rect x="10" y="20" width="200" height="10" fill="black"/>
<rect x="10" width="200" height="10" fill="black"/>
<rect y="10" width="10" height="10" fill="black"/>
<rect x="210" y="10" width="10" height="10" fill="black"/>
<rect x="10" y="10" width="10" height="10" fill="#DD80AD"/>
<rect x="20" y="10" width="10" height="10" fill="#A35C7E"/>
<rect x="30" y="10" width="10" height="10" fill="#DD80AD"/>
<rect x="40" y="10" width="10" height="10" fill="#DD80AD"/>
<rect x="50" y="10" width="10" height="10" fill="#A35C7E"/>
<rect x="60" y="10" width="10" height="10" fill="#DD80AD"/>
<rect x="70" y="10" width="10" height="10" fill="#DD80AD"/>
<rect x="80" y="10" width="10" height="10" fill="#DD80AD"/>
<rect x="90" y="10" width="10" height="10" fill="#DD80AD"/>
<rect x="100" y="10" width="10" height="10" fill="#DD80AD"/>
<rect x="10" y="10" width="10" height="10" fill="#DD80AD"/>
<rect x="10" y="20" width="200" height="10" fill="black"/>
<rect x="10" width="200" height="10" fill="black"/>
<rect y="10" width="10" height="10" fill="black"/>
<rect x="210" y="10" width="10" height="10" fill="black"/>
<rect x="10" y="10" width="10" height="10" fill="#A35C7E"/>
<rect x="30" y="10" width="10" height="10" fill="#A35C7E"/>
<rect x="40" y="10" width="10" height="10" fill="#A35C7E"/>
<rect x="60" y="10" width="10" height="10" fill="#A35C7E"/>
<rect x="70" y="10" width="10" height="10" fill="#A35C7E"/>
<rect x="80" y="10" width="10" height="10" fill="#A35C7E"/>
<rect x="90" y="10" width="10" height="10" fill="#A35C7E"/>
<rect x="100" y="10" width="10" height="10" fill="#A35C7E"/>
<rect x="10" y="10" width="10" height="10" fill="#A35C7E"/>
</svg>
