<svg width="220" height="30" viewBox="0 0 220 30" fill="none" xmlns="http://www.w3.org/2000/svg">
<path d="M10 20H210V30H10V20Z" fill="black"/>
<path d="M10 0H210V10H10V0Z" fill="black"/>
<path d="M0 10H10V20H0V10Z" fill="black"/>
<path d="M210 10H220V20H210V10Z" fill="black"/>
<rect x="10" y="10" width="10" height="10" fill="#A35C7E"/>
<rect x="20" y="10" width="10" height="10" fill="#A35C7E"/>
<rect x="30" y="10" width="10" height="10" fill="#A35C7E"/>
<rect x="40" y="10" width="10" height="10" fill="#A35C7E"/>
<rect x="50" y="10" width="10" height="10" fill="#A35C7E"/>
<rect x="60" y="10" width="10" height="10" fill="#A35C7E"/>
<rect x="70" y="10" width="10" height="10" fill="#A35C7E"/>
<rect x="80" y="10" width="10" height="10" fill="#A35C7E"/>
<rect x="90" y="10" width="10" height="10" fill="#A35C7E"/>
<rect x="100" y="10" width="10" height="10" fill="#A35C7E"/>
<rect x="110" y="10" width="10" height="10" fill="#A35C7E"/>
<rect x="120" y="10" width="10" height="10" fill="#A35C7E"/>
<rect x="130" y="10" width="10" height="10" fill="#A35C7E"/>
<rect x="140" y="10" width="10" height="10" fill="#A35C7E"/>
<rect x="10" y="10" width="10" height="10" fill="#A35C7E"/>
</svg>
