<svg width="41" height="41" viewBox="0 0 41 41" fill="none" xmlns="http://www.w3.org/2000/svg">
<path d="M11.7143 5.85714H13.6667V7.80952H11.7143V5.85714Z" fill="white"/>
<path d="M9.7619 3.90476H11.7143V5.85714H9.7619V3.90476Z" fill="white"/>
<path d="M7.80952 3.90476H9.7619V5.85714H7.80952V3.90476Z" fill="white"/>
<path d="M5.85714 3.90476H7.80952V5.85714H5.85714V3.90476Z" fill="white"/>
<path d="M13.6667 5.85714H15.619V7.80952H13.6667V5.85714Z" fill="white"/>
<path d="M15.619 3.90476H17.5714V5.85714H15.619V3.90476Z" fill="white"/>
<path d="M15.619 1.95238H17.5714V3.90476H15.619V1.95238Z" fill="white"/>
<path d="M17.5714 0H19.5238V1.95238H17.5714V0Z" fill="white"/>
<path d="M19.5238 0H21.4762V1.95238H19.5238V0Z" fill="white"/>
<path d="M21.4762 0H23.4286V1.95238H21.4762V0Z" fill="white"/>
<path d="M23.4286 1.95238H25.381V3.90476H23.4286V1.95238Z" fill="white"/>
<path d="M23.4286 3.90476H25.381V5.85714H23.4286V3.90476Z" fill="white"/>
<path d="M25.381 5.85714H27.3333V7.80952H25.381V5.85714Z" fill="white"/>
<path d="M29.2857 3.90476H31.2381V5.85714H29.2857V3.90476Z" fill="white"/>
<path d="M33.1905 3.90476H35.1429V5.85714H33.1905V3.90476Z" fill="white"/>
<path d="M27.3333 5.85714H29.2857V7.80952H27.3333V5.85714Z" fill="white"/>
<path d="M31.2381 3.90476H33.1905V5.85714H31.2381V3.90476Z" fill="white"/>
<path d="M35.1429 5.85714H37.0952V7.80952H35.1429V5.85714Z" fill="white"/>
<path d="M5.85714 5.85714H3.90476V7.80952H5.85714V5.85714Z" fill="white"/>
<path d="M35.1429 7.80952H37.0952V9.7619H35.1429V7.80952Z" fill="white"/>
<path d="M5.85714 7.80952H3.90476V9.7619H5.85714V7.80952Z" fill="white"/>
<path d="M35.1429 9.7619H37.0952V11.7143H35.1429V9.7619Z" fill="white"/>
<path d="M5.85714 9.7619H3.90476V11.7143H5.85714V9.7619Z" fill="white"/>
<path d="M33.1905 11.7143H35.1429V13.6667H33.1905V11.7143Z" fill="white"/>
<path d="M7.80952 11.7143H5.85714V13.6667H7.80952V11.7143Z" fill="white"/>
<path d="M33.1905 13.6667H35.1429V15.619H33.1905V13.6667Z" fill="white"/>
<path d="M7.80952 13.6667H5.85714V15.619H7.80952V13.6667Z" fill="white"/>
<path d="M19.5238 15.619H17.5714V17.5714H19.5238V15.619Z" fill="white"/>
<path d="M21.4762 15.619H19.5238V17.5714H21.4762V15.619Z" fill="white"/>
<path d="M23.4286 15.619H21.4762V17.5714H23.4286V15.619Z" fill="white"/>
<path d="M25.381 17.5714H23.4286V19.5238H25.381V17.5714Z" fill="white"/>
<path d="M25.381 19.5238H23.4286V21.4762H25.381V19.5238Z" fill="white"/>
<path d="M25.381 21.4762H23.4286V23.4286H25.381V21.4762Z" fill="white"/>
<path d="M23.4286 23.4286H21.4762V25.381H23.4286V23.4286Z" fill="white"/>
<path d="M21.4762 23.4286H19.5238V25.381H21.4762V23.4286Z" fill="white"/>
<path d="M19.5238 23.4286H17.5714V25.381H19.5238V23.4286Z" fill="white"/>
<path d="M17.5714 21.4762H15.619V23.4286H17.5714V21.4762Z" fill="white"/>
<path d="M17.5714 19.5238H15.619V21.4762H17.5714V19.5238Z" fill="white"/>
<path d="M17.5714 17.5714H15.619V19.5238H17.5714V17.5714Z" fill="white"/>
<path d="M35.1429 15.619H37.0952V17.5714H35.1429V15.619Z" fill="white"/>
<path d="M5.85714 15.619H3.90476V17.5714H5.85714V15.619Z" fill="white"/>
<path d="M37.0952 15.619H39.0476V17.5714H37.0952V15.619Z" fill="white"/>
<path d="M3.90476 15.619H1.95238V17.5714H3.90476V15.619Z" fill="white"/>
<path d="M39.0476 17.5714H41V19.5238H39.0476V17.5714Z" fill="white"/>
<path d="M1.95238 17.5714H0V19.5238H1.95238V17.5714Z" fill="white"/>
<path d="M39.0476 19.5238H41V21.4762H39.0476V19.5238Z" fill="white"/>
<path d="M1.95238 19.5238H0V21.4762H1.95238V19.5238Z" fill="white"/>
<path d="M39.0476 21.4762H41V23.4286H39.0476V21.4762Z" fill="white"/>
<path d="M1.95238 21.4762H0V23.4286H1.95238V21.4762Z" fill="white"/>
<path d="M37.0952 23.4286H39.0476V25.381H37.0952V23.4286Z" fill="white"/>
<path d="M3.90476 23.4286H1.95238V25.381H3.90476V23.4286Z" fill="white"/>
<path d="M35.1429 23.4286H37.0952V25.381H35.1429V23.4286Z" fill="white"/>
<path d="M5.85714 23.4286H3.90476V25.381H5.85714V23.4286Z" fill="white"/>
<path d="M33.1905 25.381H35.1429V27.3333H33.1905V25.381Z" fill="white"/>
<path d="M7.80952 25.381H5.85714V27.3333H7.80952V25.381Z" fill="white"/>
<path d="M33.1905 27.3333H35.1429V29.2857H33.1905V27.3333Z" fill="white"/>
<path d="M7.80952 27.3333H5.85714V29.2857H7.80952V27.3333Z" fill="white"/>
<path d="M35.1429 29.2857H37.0952V31.2381H35.1429V29.2857Z" fill="white"/>
<path d="M5.85714 29.2857H3.90476V31.2381H5.85714V29.2857Z" fill="white"/>
<path d="M35.1429 31.2381H37.0952V33.1905H35.1429V31.2381Z" fill="white"/>
<path d="M5.85714 31.2381H3.90476V33.1905H5.85714V31.2381Z" fill="white"/>
<path d="M35.1429 33.1905H37.0952V35.1429H35.1429V33.1905Z" fill="white"/>
<path d="M5.85714 33.1905H3.90476V35.1429H5.85714V33.1905Z" fill="white"/>
<path d="M33.1905 35.1429H35.1429V37.0952H33.1905V35.1429Z" fill="white"/>
<path d="M7.80952 35.1429H5.85714V37.0952H7.80952V35.1429Z" fill="white"/>
<path d="M31.2381 35.1429H33.1905V37.0952H31.2381V35.1429Z" fill="white"/>
<path d="M29.2857 35.1429H31.2381V37.0952H29.2857V35.1429Z" fill="white"/>
<path d="M11.7143 35.1429H9.7619V37.0952H11.7143V35.1429Z" fill="white"/>
<path d="M9.7619 35.1429H7.80952V37.0952H9.7619V35.1429Z" fill="white"/>
<path d="M27.3333 33.1905H29.2857V35.1429H27.3333V33.1905Z" fill="white"/>
<path d="M25.381 33.1905H27.3333V35.1429H25.381V33.1905Z" fill="white"/>
<path d="M23.4286 35.1429H25.381V37.0952H23.4286V35.1429Z" fill="white"/>
<path d="M23.4286 37.0952H25.381V39.0476H23.4286V37.0952Z" fill="white"/>
<path d="M21.4762 39.0476H23.4286V41H21.4762V39.0476Z" fill="white"/>
<path d="M19.5238 39.0476H21.4762V41H19.5238V39.0476Z" fill="white"/>
<path d="M17.5714 39.0476H19.5238V41H17.5714V39.0476Z" fill="white"/>
<path d="M13.6667 33.1905H15.619V35.1429H13.6667V33.1905Z" fill="white"/>
<path d="M15.619 35.1429H17.5714V37.0952H15.619V35.1429Z" fill="white"/>
<path d="M15.619 37.0952H17.5714V39.0476H15.619V37.0952Z" fill="white"/>
<path d="M11.7143 33.1905H13.6667V35.1429H11.7143V33.1905Z" fill="white"/>
<path fill-rule="evenodd" clip-rule="evenodd" d="M13.6667 7.80952H11.7143V5.85714H9.7619H7.80952H5.85714V7.80952V9.7619V11.7143H7.80952V13.6667V15.619H5.85714V17.5714H3.90476H1.95238V19.5238V21.4762V23.4286H3.90476H5.85714V25.381H7.80952V27.3333V29.2857H5.85714V31.2381V33.1905V35.1429H7.80952H9.7619H11.7143V33.1905H13.6667H15.619V35.1429H17.5714V37.0952V39.0476H19.5238H21.4762H23.4286V37.0952V35.1429H25.381V33.1905H27.3333H29.2857V35.1429H31.2381H33.1905H35.1429V33.1905V31.2381V29.2857H33.1905V27.3333V25.381H35.1429V23.4286H37.0952H39.0476V21.4762V19.5238V17.5714H37.0952H35.1429V15.619H33.1905V13.6667V11.7143H35.1429V9.7619V7.80952V5.85714H33.1905H31.2381H29.2857V7.80952H27.3333H25.381V5.85714H23.4286V3.90476V1.95238H21.4762H19.5238H17.5714V3.90476V5.85714H15.619V7.80952H13.6667ZM17.5714 15.619H19.5238H21.4762H23.4286V17.5714H25.381V19.5238V21.4762V23.4286H23.4286V25.381H21.4762H19.5238H17.5714V23.4286H15.619V21.4762V19.5238V17.5714H17.5714V15.619Z" fill="white"/>
</svg>
