<svg width="174" height="156" viewBox="0 0 174 156" fill="none" xmlns="http://www.w3.org/2000/svg">
<path d="M150 36H154V40H150V36Z" fill="white"/>
<path d="M146 32H150V36H146V32Z" fill="white"/>
<path d="M142 28H146V32H142V28Z" fill="white"/>
<path d="M138 24H142V28H138V24Z" fill="white"/>
<path d="M134 20H138V24H134V20Z" fill="white"/>
<path d="M130 16H134V20H130V16Z" fill="white"/>
<path d="M130 12H134V16H130V12Z" fill="white"/>
<path d="M130 8H134V12H130V8Z" fill="white"/>
<path d="M134 4H138V8H134V4Z" fill="white"/>
<path d="M142 0H146V4H142V0Z" fill="white"/>
<path d="M138 0H142V4H138V0Z" fill="white"/>
<path d="M146 4H150V8H146V4Z" fill="white"/>
<path d="M150 8H154V12H150V8Z" fill="white"/>
<path d="M154 4H158V8H154V4Z" fill="white"/>
<path d="M158 0H162V4H158V0Z" fill="white"/>
<path d="M162 0H166V4H162V0Z" fill="white"/>
<path d="M166 4H170V8H166V4Z" fill="white"/>
<path d="M170 8H174V12H170V8Z" fill="white"/>
<path d="M170 12H174V16H170V12Z" fill="white"/>
<path d="M170 16H174V20H170V16Z" fill="white"/>
<path d="M166 20H170V24H166V20Z" fill="white"/>
<path d="M158 28H162V32H158V28Z" fill="white"/>
<path d="M162 24H166V28H162V24Z" fill="white"/>
<path d="M154 32H158V36H154V32Z" fill="white"/>
<path d="M150 36H154V32H158V28H162V24H166V20H170V16V12V8H166V4H162H158V8H154V12H150V8H146V4H142H138V8H134V12V16V20H138V24H142V28H146V32H150V36Z" fill="white"/>
<rect y="76" width="8" height="8" fill="white"/>
<rect x="8" y="68" width="8" height="8" fill="white"/>
<rect x="16" y="60" width="8" height="8" fill="white"/>
<rect x="16" y="52" width="8" height="8" fill="white"/>
<rect x="16" y="44" width="8" height="8" fill="white"/>
<rect x="24" y="36" width="8" height="8" fill="white"/>
<rect x="32" y="36" width="8" height="8" fill="white"/>
<rect x="40" y="36" width="8" height="8" fill="white"/>
<rect x="48" y="36" width="8" height="8" fill="white"/>
<rect x="48" y="44" width="8" height="8" fill="white"/>
<rect x="56" y="52" width="8" height="8" fill="white"/>
<rect x="64" y="52" width="8" height="8" fill="white"/>
<rect x="72" y="52" width="8" height="8" fill="white"/>
<rect x="80" y="36" width="8" height="8" fill="white"/>
<rect x="80" y="44" width="8" height="8" fill="white"/>
<rect x="88" y="36" width="8" height="8" fill="white"/>
<rect x="96" y="36" width="8" height="8" fill="white"/>
<rect x="104" y="36" width="8" height="8" fill="white"/>
<rect x="112" y="44" width="8" height="8" fill="white"/>
<rect x="112" y="52" width="8" height="8" fill="white"/>
<rect x="112" y="60" width="8" height="8" fill="white"/>
<rect x="120" y="68" width="8" height="8" fill="white"/>
<rect x="128" y="76" width="8" height="8" fill="white"/>
<rect x="128" y="84" width="8" height="8" fill="white"/>
<rect x="128" y="92" width="8" height="8" fill="white"/>
<rect x="128" y="100" width="8" height="8" fill="white"/>
<rect x="128" y="108" width="8" height="8" fill="white"/>
<rect x="96" y="52" width="8" height="8" fill="white"/>
<rect x="96" y="60" width="8" height="8" fill="white"/>
<rect x="81" y="76" width="8" height="8" fill="white"/>
<rect x="73" y="84" width="8" height="8" fill="white"/>
<rect x="65" y="84" width="8" height="8" fill="white"/>
<rect x="57" y="84" width="8" height="8" fill="white"/>
<rect x="49" y="76" width="8" height="8" fill="white"/>
<rect x="32" y="60" width="8" height="8" fill="white"/>
<rect x="32" y="52" width="8" height="8" fill="white"/>
<rect y="84" width="8" height="8" fill="white"/>
<rect y="92" width="8" height="8" fill="white"/>
<rect y="100" width="8" height="8" fill="white"/>
<rect y="108" width="8" height="8" fill="white"/>
<rect y="116" width="8" height="8" fill="white"/>
<rect x="8" y="124" width="8" height="8" fill="white"/>
<rect x="16" y="132" width="8" height="8" fill="white"/>
<rect x="24" y="140" width="8" height="8" fill="white"/>
<rect x="32" y="148" width="8" height="8" fill="white"/>
<rect x="40" y="148" width="8" height="8" fill="white"/>
<rect x="48" y="140" width="8" height="8" fill="white"/>
<rect x="56" y="140" width="8" height="8" fill="white"/>
<rect x="64" y="140" width="8" height="8" fill="white"/>
<rect x="72" y="140" width="8" height="8" fill="white"/>
<rect x="80" y="140" width="8" height="8" fill="white"/>
<rect x="88" y="148" width="8" height="8" fill="white"/>
<rect x="96" y="148" width="8" height="8" fill="white"/>
<rect x="104" y="140" width="8" height="8" fill="white"/>
<rect x="112" y="132" width="8" height="8" fill="white"/>
<rect x="120" y="124" width="8" height="8" fill="white"/>
<rect x="128" y="116" width="8" height="8" fill="white"/>
<rect x="104" y="132" width="8" height="8" fill="white"/>
<rect x="24" y="132" width="8" height="8" fill="white"/>
</svg>
