<svg width="124" height="96" viewBox="0 0 124 96" fill="none" xmlns="http://www.w3.org/2000/svg">
<path d="M0 38.1538H9.53846V47.6923H0V38.1538Z" fill="white"/>
<path d="M0 47.6923H9.53846V57.2307H0V47.6923Z" fill="white"/>
<path d="M0 57.2307H9.53846V66.7692H0V57.2307Z" fill="white"/>
<path d="M9.53846 66.7692L19.0769 66.7692V76.3076H9.53847L9.53846 66.7692Z" fill="white"/>
<path d="M19.0769 76.3076L28.6154 76.3076V85.8461H19.0769L19.0769 76.3076Z" fill="white"/>
<path d="M28.6154 85.8461L38.1538 85.8461V95.3845H28.6154L28.6154 85.8461Z" fill="white"/>
<path d="M38.1538 85.8461H47.6923V95.3845H38.1538V85.8461Z" fill="white"/>
<path d="M76.3077 85.8461H85.8462V95.3845H76.3077V85.8461Z" fill="white"/>
<path d="M66.7692 85.8461H76.3077V95.3845H66.7692V85.8461Z" fill="white"/>
<path d="M57.2308 85.8461H66.7692V95.3845H57.2308V85.8461Z" fill="white"/>
<path d="M47.6923 85.8461H57.2308V95.3845H47.6923V85.8461Z" fill="white"/>
<path d="M85.8462 85.8461H95.3846V95.3845H85.8462V85.8461Z" fill="white"/>
<path d="M95.3846 76.3076H104.923V85.8461L95.3846 85.8461L95.3846 76.3076Z" fill="white"/>
<path d="M104.923 66.7692H114.462V76.3076L104.923 76.3076L104.923 66.7692Z" fill="white"/>
<path d="M114.462 57.2307H124V66.7692L114.462 66.7692L114.462 57.2307Z" fill="white"/>
<path d="M104.923 57.2307H114.462L114.462 66.7692H104.923V57.2307Z" fill="white"/>
<path d="M114.462 47.6923H124V57.2307H114.462V47.6923Z" fill="white"/>
<path d="M114.462 38.1538H124V47.6923H114.462V38.1538Z" fill="white"/>
<path d="M114.462 28.6154H124V38.1538H114.462V28.6154Z" fill="white"/>
<path d="M0 28.6154H9.53846V38.1538H0V28.6154Z" fill="white"/>
<path d="M9.53847 19.0769H19.0769V28.6154L9.53846 28.6154L9.53847 19.0769Z" fill="white"/>
<path d="M19.0769 9.53845H28.6154V19.0769L19.0769 19.0769L19.0769 9.53845Z" fill="white"/>
<path d="M9.53847 9.53845H19.0769L19.0769 19.0769H9.53847V9.53845Z" fill="white"/>
<path d="M28.6154 9.53845H38.1538V19.0769H28.6154V9.53845Z" fill="white"/>
<path d="M38.1538 0H47.6923V9.53846L38.1538 9.53845L38.1538 0Z" fill="white"/>
<path d="M47.6923 0H57.2308V9.53846H47.6923V0Z" fill="white"/>
<path d="M9.53846 47.6923L19.0769 47.6923V57.2307H9.53846V47.6923Z" fill="white"/>
<path d="M19.0769 47.6923H28.6154V57.2307H19.0769V47.6923Z" fill="white"/>
<path d="M28.6154 57.2307L38.1538 57.2307V66.7692H28.6154L28.6154 57.2307Z" fill="white"/>
<path d="M19.0769 57.2307H28.6154L28.6154 66.7692L19.0769 66.7692V57.2307Z" fill="white"/>
<path d="M9.53846 57.2307H19.0769V66.7692L9.53846 66.7692V57.2307Z" fill="white"/>
<path d="M38.1538 57.2307H47.6923V66.7692H38.1538V57.2307Z" fill="white"/>
<path d="M38.1538 29.8076H47.6923V39.3461H38.1538V29.8076Z" fill="white"/>
<path d="M52.4615 19.0769H62V28.6154H52.4615V19.0769Z" fill="white"/>
<path d="M65.5769 32.1923H75.1154V41.7307H65.5769V32.1923Z" fill="white"/>
<path d="M104.923 9.53845H114.462V19.0769H104.923V9.53845Z" fill="white"/>
<path d="M47.6923 57.2307H57.2308V66.7692H47.6923V57.2307Z" fill="white"/>
<path d="M57.2308 57.2307H66.7692V66.7692H57.2308V57.2307Z" fill="white"/>
<path d="M66.7692 57.2307H76.3077V66.7692H66.7692V57.2307Z" fill="white"/>
<path d="M76.3077 57.2307H85.8462V66.7692H76.3077V57.2307Z" fill="white"/>
<path d="M85.8462 57.2307H95.3846V66.7692H85.8462V57.2307Z" fill="white"/>
<path d="M85.8462 66.7692H95.3846L95.3846 76.3076L85.8462 76.3076L85.8462 66.7692Z" fill="white"/>
<path d="M76.3077 66.7692H85.8462L85.8462 76.3076H76.3077L76.3077 66.7692Z" fill="white"/>
<path d="M66.7692 66.7692H76.3077L76.3077 76.3076H66.7692L66.7692 66.7692Z" fill="white"/>
<path d="M57.2308 66.7692H66.7692L66.7692 76.3076H57.2308L57.2308 66.7692Z" fill="white"/>
<path d="M47.6923 66.7692H57.2308L57.2308 76.3076H47.6923L47.6923 66.7692Z" fill="white"/>
<path d="M38.1538 66.7692H47.6923L47.6923 76.3076H38.1538L38.1538 66.7692Z" fill="white"/>
<path d="M28.6154 66.7692H38.1538L38.1538 76.3076L28.6154 76.3076L28.6154 66.7692Z" fill="white"/>
<path d="M19.0769 66.7692L28.6154 66.7692L28.6154 76.3076L19.0769 76.3076V66.7692Z" fill="white"/>
<path d="M85.8462 76.3076L95.3846 76.3076L95.3846 85.8461H85.8462L85.8462 76.3076Z" fill="white"/>
<path d="M76.3077 76.3076H85.8462L85.8462 85.8461H76.3077V76.3076Z" fill="white"/>
<path d="M66.7692 76.3076H76.3077V85.8461H66.7692V76.3076Z" fill="white"/>
<path d="M57.2308 76.3076H66.7692V85.8461H57.2308V76.3076Z" fill="white"/>
<path d="M47.6923 76.3076H57.2308V85.8461H47.6923L47.6923 76.3076Z" fill="white"/>
<path d="M38.1538 76.3076H47.6923L47.6923 85.8461H38.1538L38.1538 76.3076Z" fill="white"/>
<path d="M28.6154 76.3076L38.1538 76.3076L38.1538 85.8461L28.6154 85.8461V76.3076Z" fill="white"/>
<path d="M85.8462 85.8461H95.3846V95.3845H85.8462V85.8461Z" fill="white"/>
<path d="M95.3846 47.6923H104.923L104.923 57.2307H95.3846L95.3846 47.6923Z" fill="white"/>
<path d="M95.3846 57.2307H104.923V66.7692L95.3846 66.7692V57.2307Z" fill="white"/>
<path d="M95.3846 66.7692L104.923 66.7692L104.923 76.3076H95.3846L95.3846 66.7692Z" fill="white"/>
<path d="M104.923 47.6923H114.462V57.2307H104.923L104.923 47.6923Z" fill="white"/>
<path d="M57.2308 0H66.7692V9.53846H57.2308V0Z" fill="white"/>
<path d="M66.7692 0H76.3077V9.53846H66.7692V0Z" fill="white"/>
<path d="M76.3077 0H85.8462V9.53846H76.3077V0Z" fill="white"/>
<path d="M85.8462 9.53846L95.3846 9.53845V19.0769H85.8462L85.8462 9.53846Z" fill="white"/>
<path d="M95.3846 9.53845H104.923V19.0769H95.3846V9.53845Z" fill="white"/>
<path d="M104.923 19.0769H114.462L114.462 28.6154L104.923 28.6154V19.0769Z" fill="white"/>
<path d="M114.462 19.0769L124 19.0769V28.6154H114.462L114.462 19.0769Z" fill="white"/>
<path d="M0 19.0769H9.53847L9.53846 28.6154H0V19.0769Z" fill="white"/>
</svg>
