<svg width="124" height="124" viewBox="0 0 124 124" fill="none" xmlns="http://www.w3.org/2000/svg">
<path d="M0 49.6H8.26667V57.8667H0V49.6Z" fill="white"/>
<path d="M0 57.8667H8.26667V66.1333H0V57.8667Z" fill="white"/>
<path d="M0 66.1333H8.26667V74.4H0V66.1333Z" fill="white"/>
<path d="M8.26667 74.4L16.5333 74.4V82.6667H8.26666L8.26667 74.4Z" fill="white"/>
<path d="M115.742 49.5551H107.476V41.2884H115.742V49.5551Z" fill="white"/>
<path d="M8.26666 82.6667H16.5333V90.9333H8.26666V82.6667Z" fill="white"/>
<path d="M115.733 41.2884H107.467V33.0218H115.733V41.2884Z" fill="white"/>
<path d="M24.8 99.2H33.0667V107.467H24.8V99.2Z" fill="white"/>
<path d="M99.1821 24.773H90.9154V16.5064H99.1821V24.773Z" fill="white"/>
<path d="M16.5333 90.9333L24.8 90.9333L24.8 99.2L16.5333 99.2L16.5333 90.9333Z" fill="white"/>
<path d="M107.458 33.0308H99.1912V24.7642H107.458V33.0308Z" fill="white"/>
<path d="M33.0667 107.467L41.3333 107.467V115.733H33.0667L33.0667 107.467Z" fill="white"/>
<path d="M90.9066 16.5154H82.6399V8.24877H90.9066V16.5154Z" fill="white"/>
<path d="M41.3333 107.467H49.6V115.733H41.3333V107.467Z" fill="white"/>
<path d="M82.6399 16.5243H74.3733V8.25759H82.6399V16.5243Z" fill="white"/>
<path d="M49.6 115.733L57.8667 115.733V124H49.6L49.6 115.733Z" fill="white"/>
<path d="M74.3642 8.26667H66.0975V0H74.3642V8.26667Z" fill="white"/>
<path d="M57.8667 115.733H66.1333V124H57.8667V115.733Z" fill="white"/>
<path d="M66.0975 8.2755H57.8308V0.00883538H66.0975V8.2755Z" fill="white"/>
<path d="M66.1333 115.733H74.4V124H66.1333V115.733Z" fill="white"/>
<path d="M57.8308 8.28459H49.5642V0.0179242H57.8308V8.28459Z" fill="white"/>
<path d="M74.4 107.467H82.6667V115.733L74.4 115.733L74.4 107.467Z" fill="white"/>
<path d="M49.5733 16.5601H41.3066V8.29342H49.5733V16.5601Z" fill="white"/>
<path d="M82.6667 107.467H90.9333V115.733H82.6667V107.467Z" fill="white"/>
<path d="M41.3066 16.5692H33.0399V8.30249H41.3066V16.5692Z" fill="white"/>
<path d="M90.9333 99.2H99.2V107.467L90.9333 107.467L90.9333 99.2Z" fill="white"/>
<path d="M33.0488 24.8447H24.7821V16.578H33.0488V24.8447Z" fill="white"/>
<path d="M37.2 45.4667H28.9333V37.2H37.2V45.4667Z" fill="white"/>
<path d="M41.3512 66.0887H33.0846V57.822H41.3512V66.0887Z" fill="white"/>
<path d="M67.1667 82.6667H58.9V74.4H67.1667V82.6667Z" fill="white"/>
<path d="M82.6667 99.2H74.4V90.9333H82.6667V99.2Z" fill="white"/>
<path d="M97.1333 70.2667H88.8667V62H97.1333V70.2667Z" fill="white"/>
<path d="M86.8 41.3333H78.5333V33.0667H86.8V41.3333Z" fill="white"/>
<path d="M63.0333 26.8667H54.7667V18.6H63.0333V26.8667Z" fill="white"/>
<path d="M67.1667 53.7333H58.9V45.4667H67.1667V53.7333Z" fill="white"/>
<path d="M58.9 53.7333H50.6333V45.4667H58.9V53.7333Z" fill="white"/>
<path d="M97.1333 78.5333H88.8667V70.2667H97.1333V78.5333Z" fill="white"/>
<path d="M39.2667 86.8H31V78.5333H39.2667V86.8Z" fill="white"/>
<path d="M99.2 90.9333H107.467V99.2L99.2 99.2L99.2 90.9333Z" fill="white"/>
<path d="M24.7912 33.1202H16.5245V24.8535H24.7912V33.1202Z" fill="white"/>
<path d="M107.467 82.6667H115.733V90.9333L107.467 90.9333L107.467 82.6667Z" fill="white"/>
<path d="M16.5333 41.3959H8.26667V33.1292H16.5333V41.3959Z" fill="white"/>
<path d="M107.467 74.4H115.733V82.6667H107.467V74.4Z" fill="white"/>
<path d="M16.5424 49.6626H8.27576V41.3959H16.5424V49.6626Z" fill="white"/>
<path d="M115.733 66.1333H124V74.4L115.733 74.4L115.733 66.1333Z" fill="white"/>
<path d="M115.733 57.8667H124V66.1333H115.733V57.8667Z" fill="white"/>
<path d="M115.733 49.6H124V57.8667H115.733V49.6Z" fill="white"/>
</svg>
