<svg width="124" height="107" viewBox="0 0 124 107" fill="none" xmlns="http://www.w3.org/2000/svg">
<path d="M16.5333 16.5333H24.8V24.8H16.5333V16.5333Z" fill="white"/>
<path d="M24.8 16.5333H33.0667V24.8H24.8V16.5333Z" fill="white"/>
<path d="M33.0667 8.26666H41.3333V16.5333H33.0667V8.26666Z" fill="white"/>
<path d="M41.3333 8.26666H49.6V16.5333H41.3333V8.26666Z" fill="white"/>
<path d="M23.7667 34.1H32.0333V42.3667H23.7667V34.1Z" fill="white"/>
<path d="M42.3667 23.7667H50.6333V32.0333H42.3667V23.7667Z" fill="white"/>
<path d="M59.9333 35.1333H68.2V43.4H59.9333V35.1333Z" fill="white"/>
<path d="M75.4333 23.7667H83.7V32.0333H75.4333V23.7667Z" fill="white"/>
<path d="M89.9 35.1333H98.1667V43.4H89.9V35.1333Z" fill="white"/>
<path d="M49.6 0H57.8667V8.26667L49.6 8.26666V0Z" fill="white"/>
<path d="M57.8667 0H66.1333V8.26667H57.8667V0Z" fill="white"/>
<path d="M66.1333 0H74.4V8.26667H66.1333V0Z" fill="white"/>
<path d="M74.4 8.26667L82.6667 8.26666V16.5333H74.4V8.26667Z" fill="white"/>
<path d="M82.6667 8.26666H90.9333V16.5333H82.6667V8.26666Z" fill="white"/>
<path d="M90.9333 16.5333H99.2V24.8H90.9333V16.5333Z" fill="white"/>
<path d="M99.2 16.5333H107.467V24.8H99.2V16.5333Z" fill="white"/>
<path d="M107.467 24.8H115.733V33.0667H107.467V24.8Z" fill="white"/>
<path d="M115.733 33.0667H124V41.3333H115.733V33.0667Z" fill="white"/>
<path d="M115.733 41.3333H124V49.6H115.733V41.3333Z" fill="white"/>
<path d="M107.467 49.6H115.733V57.8667H107.467V49.6Z" fill="white"/>
<path d="M99.2 49.6H107.467V57.8667H99.2V49.6Z" fill="white"/>
<path d="M90.9333 49.6H99.2V57.8667H90.9333V49.6Z" fill="white"/>
<path d="M82.6667 49.6H90.9333V57.8667H82.6667V49.6Z" fill="white"/>
<path d="M74.4 49.6H82.6667V57.8667H74.4V49.6Z" fill="white"/>
<path d="M66.1333 49.6H74.4V57.8667H66.1333V49.6Z" fill="white"/>
<path d="M57.8667 49.6H66.1333V57.8667H57.8667V49.6Z" fill="white"/>
<path d="M49.6 49.6H57.8667V57.8667H49.6V49.6Z" fill="white"/>
<path d="M41.3333 49.6H49.6V57.8667H41.3333V49.6Z" fill="white"/>
<path d="M33.0667 49.6H41.3333V57.8667H33.0667V49.6Z" fill="white"/>
<path d="M24.8 49.6H33.0667V57.8667H24.8V49.6Z" fill="white"/>
<path d="M16.5333 49.6H24.8V57.8667H16.5333V49.6Z" fill="white"/>
<path d="M8.26666 49.6H16.5333V57.8667H8.26666V49.6Z" fill="white"/>
<path d="M115.733 57.3884H124V65.6551H115.733V57.3884Z" fill="white"/>
<path d="M115.733 65.6551H124V73.9217H115.733V65.6551Z" fill="white"/>
<path d="M99.2 73.9218H107.467V82.1885H99.2V73.9218Z" fill="white"/>
<path d="M90.9333 73.9218H99.2V82.1885H90.9333V73.9218Z" fill="white"/>
<path d="M82.6667 73.9218H90.9333V82.1885H82.6667V73.9218Z" fill="white"/>
<path d="M74.4 73.9218H82.6667V82.1885H74.4V73.9218Z" fill="white"/>
<path d="M66.1333 73.9218H74.4V82.1885H66.1333V73.9218Z" fill="white"/>
<path d="M57.8667 73.9218H66.1333V82.1885H57.8667V73.9218Z" fill="white"/>
<path d="M49.6 73.9218H57.8667V82.1885H49.6V73.9218Z" fill="white"/>
<path d="M41.3333 73.9218H49.6V82.1885H41.3333V73.9218Z" fill="white"/>
<path d="M33.0667 73.9218H41.3333V82.1885H33.0667V73.9218Z" fill="white"/>
<path d="M24.8 73.9218H33.0667V82.1885H24.8V73.9218Z" fill="white"/>
<path d="M16.5333 73.9218H24.8V82.1885H16.5333V73.9218Z" fill="white"/>
<path d="M8.26665 73.9218H16.5333V82.1885H8.26665V73.9218Z" fill="white"/>
<path d="M0 82.1885L8.26665 82.1885L8.26667 90.4552H0V82.1885Z" fill="white"/>
<path d="M0 90.4552H8.26667V98.7218H0V90.4552Z" fill="white"/>
<path d="M8.26667 98.7218L16.5333 98.7218V106.988H8.26665L8.26667 98.7218Z" fill="white"/>
<path d="M16.5333 98.7218H24.8V106.988H16.5333V98.7218Z" fill="white"/>
<path d="M24.8 98.7218H33.0667V106.988H24.8V98.7218Z" fill="white"/>
<path d="M33.0667 98.7218H41.3333V106.988H33.0667V98.7218Z" fill="white"/>
<path d="M41.3333 98.7218H49.6V106.988H41.3333V98.7218Z" fill="white"/>
<path d="M49.6 98.7218H57.8667V106.988H49.6V98.7218Z" fill="white"/>
<path d="M57.8667 98.7218H66.1333V106.988H57.8667V98.7218Z" fill="white"/>
<path d="M66.1333 98.7218H74.4V106.988H66.1333V98.7218Z" fill="white"/>
<path d="M74.4 98.7218H82.6666V106.988H74.4V98.7218Z" fill="white"/>
<path d="M82.6666 98.7218H90.9333V106.988H82.6666V98.7218Z" fill="white"/>
<path d="M90.9333 98.7218H99.2V106.988H90.9333V98.7218Z" fill="white"/>
<path d="M99.2 98.7218H107.467V106.988H99.2V98.7218Z" fill="white"/>
<path d="M107.467 98.7218H115.733V106.988H107.467V98.7218Z" fill="white"/>
<path d="M107.467 73.9218L115.733 73.9217L115.733 82.1885H107.467V73.9218Z" fill="white"/>
<path d="M115.733 90.4551H124V98.7218L115.733 98.7218L115.733 90.4551Z" fill="white"/>
<path d="M115.733 82.1885L124 82.1885V90.4551H115.733L115.733 82.1885Z" fill="white"/>
<path d="M0 65.6551H8.26667L8.26665 73.9218L0 73.9217V65.6551Z" fill="white"/>
<path d="M0 57.3884H8.26667V65.6551H0V57.3884Z" fill="white"/>
<path d="M0 41.3333H8.26667L8.26666 49.6H0V41.3333Z" fill="white"/>
<path d="M0 33.0667H8.26667V41.3333H0V33.0667Z" fill="white"/>
<path d="M8.26666 24.8H16.5333V33.0667H8.26667L8.26666 24.8Z" fill="white"/>
</svg>
