<svg width="91" height="124" viewBox="0 0 91 124" fill="none" xmlns="http://www.w3.org/2000/svg">
<path d="M0 57.8667H8.26667V66.1333H0V57.8667Z" fill="white"/>
<path d="M0 66.1333H8.26667V74.4H0V66.1333Z" fill="white"/>
<path d="M0 74.4H8.26667V82.6667H0V74.4Z" fill="white"/>
<path d="M0 82.6667H8.26667V90.9333H0V82.6667Z" fill="white"/>
<path d="M0 90.9333H8.26667V99.2H0V90.9333Z" fill="white"/>
<path d="M0 99.2H8.26667V107.467H0V99.2Z" fill="white"/>
<path d="M0 107.467H8.26667V115.733H0V107.467Z" fill="white"/>
<path d="M8.26667 115.733H16.5333V124H8.26667V115.733Z" fill="white"/>
<path d="M16.5333 115.733H24.8V124H16.5333V115.733Z" fill="white"/>
<path d="M24.8 115.733H33.0667V124H24.8V115.733Z" fill="white"/>
<path d="M33.0667 115.733H41.3333V124H33.0667V115.733Z" fill="white"/>
<path d="M41.3333 115.733H49.6V124H41.3333V115.733Z" fill="white"/>
<path d="M49.6 115.733H57.8667V124H49.6V115.733Z" fill="white"/>
<path d="M57.8667 115.733H66.1333V124H57.8667V115.733Z" fill="white"/>
<path d="M66.1333 115.733H74.4V124H66.1333V115.733Z" fill="white"/>
<path d="M82.6667 107.467H90.9333V115.733H82.6667V107.467Z" fill="white"/>
<path d="M74.4 115.733H82.6667V124H74.4V115.733Z" fill="white"/>
<path d="M82.6667 99.2H90.9333V107.467H82.6667V99.2Z" fill="white"/>
<path d="M82.6667 90.9333H90.9333V99.2H82.6667V90.9333Z" fill="white"/>
<path d="M82.6667 82.6667H90.9333V90.9333H82.6667V82.6667Z" fill="white"/>
<path d="M82.6667 74.4H90.9333V82.6667H82.6667V74.4Z" fill="white"/>
<path d="M82.6667 66.1333H90.9333V74.4H82.6667V66.1333Z" fill="white"/>
<path d="M82.6667 57.8667H90.9333V66.1333H82.6667V57.8667Z" fill="white"/>
<path d="M74.4 57.8667H82.6667V66.1333H74.4V57.8667Z" fill="white"/>
<path d="M66.1333 57.8667H74.4V66.1333H66.1333V57.8667Z" fill="white"/>
<path d="M57.8667 57.8667H66.1333V66.1333H57.8667V57.8667Z" fill="white"/>
<path d="M49.6 57.8667H57.8667V66.1333H49.6V57.8667Z" fill="white"/>
<path d="M41.3333 57.8667H49.6V66.1333H41.3333V57.8667Z" fill="white"/>
<path d="M33.0667 57.8667H41.3333V66.1333H33.0667V57.8667Z" fill="white"/>
<path d="M24.8 57.8667H33.0667V66.1333H24.8V57.8667Z" fill="white"/>
<path d="M16.5333 57.8667H24.8V66.1333H16.5333V57.8667Z" fill="white"/>
<path d="M8.26667 57.8667H16.5333V66.1333H8.26667V57.8667Z" fill="white"/>
<path d="M8.26667 49.6H16.5333V57.8667H8.26667V49.6Z" fill="white"/>
<path d="M8.26667 41.3333H16.5333V49.6H8.26667V41.3333Z" fill="white"/>
<path d="M8.26667 33.0667H16.5333V41.3333H8.26667V33.0667Z" fill="white"/>
<path d="M8.26667 24.8H16.5333V33.0667H8.26667V24.8Z" fill="white"/>
<path d="M8.26667 16.5333H16.5333V24.8H8.26667V16.5333Z" fill="white"/>
<path d="M24.8 16.5333H33.0667V24.8H24.8V16.5333Z" fill="white"/>
<path d="M24.8 24.8H33.0667V33.0667H24.8V24.8Z" fill="white"/>
<path d="M24.8 33.0667H33.0667V41.3333H24.8V33.0667Z" fill="white"/>
<path d="M24.8 41.3333H33.0667V49.6H24.8V41.3333Z" fill="white"/>
<path d="M24.8 49.6H33.0667V57.8667H24.8V49.6Z" fill="white"/>
<path d="M33.0667 8.26667H41.3333V16.5333H33.0667V8.26667Z" fill="white"/>
<path d="M16.5333 16.5333H24.8V24.8H16.5333V16.5333Z" fill="white"/>
<path d="M41.3333 8.26667H49.6V16.5333H41.3333V8.26667Z" fill="white"/>
<path d="M24.8 8.26667H33.0667V16.5333H24.8V8.26667Z" fill="white"/>
<path d="M41.3333 16.5333H49.6V24.8H41.3333V16.5333Z" fill="white"/>
<path d="M41.3333 24.8H49.6V33.0667H41.3333V24.8Z" fill="white"/>
<path d="M41.3333 33.0667H49.6V41.3333H41.3333V33.0667Z" fill="white"/>
<path d="M41.3333 41.3333H49.6V49.6H41.3333V41.3333Z" fill="white"/>
<path d="M41.3333 49.6H49.6V57.8667H41.3333V49.6Z" fill="white"/>
<path d="M57.8667 24.8H66.1333V33.0667H57.8667V24.8Z" fill="white"/>
<path d="M57.8667 16.5333H66.1333V24.8H57.8667V16.5333Z" fill="white"/>
<path d="M57.8667 8.26667H66.1333V16.5333H57.8667V8.26667Z" fill="white"/>
<path d="M57.8667 0H66.1333V8.26667H57.8667V0Z" fill="white"/>
<path d="M66.1333 0H74.4V8.26667H66.1333V0Z" fill="white"/>
<path d="M74.4 0H82.6667V8.26667H74.4V0Z" fill="white"/>
<path d="M74.4 8.26667H82.6667V16.5333H74.4V8.26667Z" fill="white"/>
<path d="M74.4 33.0667H82.6667V41.3333H74.4V33.0667Z" fill="white"/>
<path d="M74.4 41.3333H82.6667V49.6H74.4V41.3333Z" fill="white"/>
<path d="M74.4 49.6H82.6667V57.8667H74.4V49.6Z" fill="white"/>
<path d="M74.4 16.5333H82.6667V24.8H74.4V16.5333Z" fill="white"/>
<path d="M74.4 24.8H82.6667V33.0667H74.4V24.8Z" fill="white"/>
<path d="M57.8667 33.0667H66.1333V41.3333H57.8667V33.0667Z" fill="white"/>
<path d="M57.8667 41.3333H66.1333V49.6H57.8667V41.3333Z" fill="white"/>
<path d="M57.8667 49.6H66.1333V57.8667H57.8667V49.6Z" fill="white"/>
<path d="M49.6 24.8H57.8667V33.0667H49.6V24.8Z" fill="white"/>
<path d="M24.8 57.8667H33.0667V66.1333H24.8V57.8667Z" fill="white"/>
<path d="M8.26667 66.1333V74.4V82.6667V90.9333V99.2V107.467V115.733H16.5333H24.8H33.0667H41.3333H49.6H57.8667H66.1333H74.4H82.6667V107.467V99.2V90.9333V82.6667V74.4V66.1333H74.4H66.1333H57.8667H49.6H41.3333H33.0667H24.8H16.5333H8.26667Z" fill="white"/>
</svg>
