<svg width="136" height="120" viewBox="0 0 136 120" fill="none" xmlns="http://www.w3.org/2000/svg">
<rect y="40" width="8" height="8" fill="white"/>
<rect x="8" y="32" width="8" height="8" fill="white"/>
<rect x="16" y="24" width="8" height="8" fill="white"/>
<rect x="16" y="16" width="8" height="8" fill="white"/>
<rect x="16" y="8" width="8" height="8" fill="white"/>
<rect x="24" width="8" height="8" fill="white"/>
<rect x="32" width="8" height="8" fill="white"/>
<rect x="40" width="8" height="8" fill="white"/>
<rect x="48" width="8" height="8" fill="white"/>
<rect x="48" y="8" width="8" height="8" fill="white"/>
<rect x="56" y="16" width="8" height="8" fill="white"/>
<rect x="64" y="16" width="8" height="8" fill="white"/>
<rect x="72" y="16" width="8" height="8" fill="white"/>
<rect x="80" width="8" height="8" fill="white"/>
<rect x="80" y="8" width="8" height="8" fill="white"/>
<rect x="88" width="8" height="8" fill="white"/>
<rect x="96" width="8" height="8" fill="white"/>
<rect x="104" width="8" height="8" fill="white"/>
<rect x="112" y="8" width="8" height="8" fill="white"/>
<rect x="112" y="16" width="8" height="8" fill="white"/>
<rect x="112" y="24" width="8" height="8" fill="white"/>
<rect x="120" y="32" width="8" height="8" fill="white"/>
<rect x="128" y="40" width="8" height="8" fill="white"/>
<rect x="128" y="48" width="8" height="8" fill="white"/>
<rect x="128" y="56" width="8" height="8" fill="white"/>
<rect x="128" y="64" width="8" height="8" fill="white"/>
<rect x="128" y="72" width="8" height="8" fill="white"/>
<rect x="96" y="16" width="8" height="8" fill="white"/>
<rect x="96" y="24" width="8" height="8" fill="white"/>
<rect x="81" y="40" width="8" height="8" fill="white"/>
<rect x="73" y="40" width="8" height="8" fill="white"/>
<rect x="65" y="40" width="8" height="8" fill="white"/>
<rect x="57" y="40" width="8" height="8" fill="white"/>
<rect x="49" y="40" width="8" height="8" fill="white"/>
<rect x="32" y="24" width="8" height="8" fill="white"/>
<rect x="32" y="16" width="8" height="8" fill="white"/>
<rect y="48" width="8" height="8" fill="white"/>
<rect y="56" width="8" height="8" fill="white"/>
<rect y="64" width="8" height="8" fill="white"/>
<rect y="72" width="8" height="8" fill="white"/>
<rect y="80" width="8" height="8" fill="white"/>
<rect x="8" y="88" width="8" height="8" fill="white"/>
<rect x="16" y="96" width="8" height="8" fill="white"/>
<rect x="24" y="104" width="8" height="8" fill="white"/>
<rect x="32" y="112" width="8" height="8" fill="white"/>
<rect x="40" y="112" width="8" height="8" fill="white"/>
<rect x="48" y="104" width="8" height="8" fill="white"/>
<rect x="56" y="104" width="8" height="8" fill="white"/>
<rect x="64" y="104" width="8" height="8" fill="white"/>
<rect x="72" y="104" width="8" height="8" fill="white"/>
<rect x="80" y="104" width="8" height="8" fill="white"/>
<rect x="88" y="112" width="8" height="8" fill="white"/>
<rect x="96" y="112" width="8" height="8" fill="white"/>
<rect x="104" y="104" width="8" height="8" fill="white"/>
<rect x="112" y="96" width="8" height="8" fill="white"/>
<rect x="120" y="88" width="8" height="8" fill="white"/>
<rect x="128" y="80" width="8" height="8" fill="white"/>
<rect x="104" y="96" width="8" height="8" fill="white"/>
<rect x="24" y="96" width="8" height="8" fill="white"/>
</svg>
