<svg width="124" height="96" viewBox="0 0 124 96" fill="none" xmlns="http://www.w3.org/2000/svg">
<path d="M21.8824 16H29.1765V24H21.8824V16Z" fill="white"/>
<path d="M29.1765 16H36.4706V24H29.1765V16Z" fill="white"/>
<path d="M36.4706 8H43.7647V16H36.4706V8Z" fill="white"/>
<path d="M43.7647 8H51.0588V16H43.7647V8Z" fill="white"/>
<path d="M51.0588 0H58.3529V8H51.0588V0Z" fill="white"/>
<path d="M58.3529 0H65.6471V8H58.3529V0Z" fill="white"/>
<path d="M65.6471 0H72.9412V8H65.6471V0Z" fill="white"/>
<path d="M72.9412 0H80.2353V8H72.9412V0Z" fill="white"/>
<path d="M80.2353 0H87.5294V8H80.2353V0Z" fill="white"/>
<path d="M87.5294 8H94.8235V16H87.5294V8Z" fill="white"/>
<path d="M94.8235 8H102.118V16H94.8235V8Z" fill="white"/>
<path d="M102.118 16H109.412V24H102.118V16Z" fill="white"/>
<path d="M109.412 24H116.706V32H109.412V24Z" fill="white"/>
<path d="M116.706 32H124V40H116.706V32Z" fill="white"/>
<path d="M109.412 40H116.706V48H109.412V40Z" fill="white"/>
<path d="M102.118 40H109.412V48H102.118V40Z" fill="white"/>
<path d="M102.118 48H109.412V56H102.118V48Z" fill="white"/>
<path d="M102.118 56H109.412V64H102.118V56Z" fill="white"/>
<path d="M94.8235 64H102.118V72H94.8235V64Z" fill="white"/>
<path d="M87.5294 72H94.8235V80H87.5294V72Z" fill="white"/>
<path d="M80.2353 72H87.5294V80H80.2353V72Z" fill="white"/>
<path d="M72.9412 80H80.2353V88H72.9412V80Z" fill="white"/>
<path d="M65.6471 80H72.9412V88H65.6471V80Z" fill="white"/>
<path d="M58.3529 88H65.6471V96H58.3529V88Z" fill="white"/>
<path d="M51.0588 88H58.3529V96H51.0588V88Z" fill="white"/>
<path d="M43.7647 88H51.0588V96H43.7647V88Z" fill="white"/>
<path d="M36.4706 88H43.7647V96H36.4706V88Z" fill="white"/>
<path d="M29.1765 88H36.4706V96H29.1765V88Z" fill="white"/>
<path d="M21.8824 80H29.1765V88H21.8824V80Z" fill="white"/>
<path d="M14.5882 72H21.8824V80H14.5882V72Z" fill="white"/>
<path d="M7.29412 64H14.5882V72H7.29412V64Z" fill="white"/>
<path d="M7.29412 56H14.5882V64H7.29412V56Z" fill="white"/>
<path d="M7.29412 48H14.5882V56H7.29412V48Z" fill="white"/>
<path d="M0 40H7.29412V48H0V40Z" fill="white"/>
<path d="M7.29412 32H14.5882V40H7.29412V32Z" fill="white"/>
<path d="M14.5882 24H21.8824V32H14.5882V24Z" fill="white"/>
<path d="M7.29412 40H14.5882V48H7.29412V40Z" fill="white"/>
<path d="M14.5882 40H21.8824V48H14.5882V40Z" fill="white"/>
<path d="M21.8824 48H29.1765V56H21.8824V48Z" fill="white"/>
<path d="M29.1765 56H36.4706V64H29.1765V56Z" fill="white"/>
<path d="M36.4706 64H43.7647V72H36.4706V64Z" fill="white"/>
<path d="M43.7647 56H51.0588V64H43.7647V56Z" fill="white"/>
<path d="M51.0588 48H58.3529V56H51.0588V48Z" fill="white"/>
<path d="M58.3529 48H65.6471V56H58.3529V48Z" fill="white"/>
<path d="M65.6471 40H72.9412V48H65.6471V40Z" fill="white"/>
<path d="M72.9412 40H80.2353V48H72.9412V40Z" fill="white"/>
<path d="M80.2353 32H87.5294V40H80.2353V32Z" fill="white"/>
<path d="M87.5294 32H94.8235V40H87.5294V32Z" fill="white"/>
<path d="M94.8235 32H102.118V40H94.8235V32Z" fill="white"/>
<path d="M102.118 32H109.412V40H102.118V32Z" fill="white"/>
<path d="M109.412 32H116.706V40H109.412V32Z" fill="white"/>
<path d="M29.1765 24H21.8824V32H14.5882V40H21.8824V48H29.1765V56H36.4706V64H43.7647V56H51.0588V48H58.3529H65.6471V40H72.9412H80.2353V32H87.5294H94.8235H102.118H109.412V24H102.118V16H94.8235H87.5294V8H80.2353H72.9412H65.6471H58.3529H51.0588V16H43.7647H36.4706V24H29.1765Z" fill="white"/>
</svg>
